<?xml version="1.0" encoding="utf-8"?>
<!-- Generator: Adobe Illustrator 27.5.0, SVG Export Plug-In . SVG Version: 6.00 Build 0)  -->
<svg version="1.1" id="Layer_1" xmlns="http://www.w3.org/2000/svg" xmlns:xlink="http://www.w3.org/1999/xlink" x="0px" y="0px"
	 viewBox="-2684.813 -1874.7 4251.968 3585.956" style="enable-background:new -2684.813 -1874.7 4251.968 3585.956;"
	 xml:space="preserve">
<rect x="-2684.813" y="-1874.7" style="fill:#020405;" width="4251.968" height="3585.956"/>
<path style="fill-rule:evenodd;clip-rule:evenodd;fill:#F42121;" d="M-679.419,857.732c27.002-51.009,52.672-101.885,72.509-155.491
	c68.15-184.171,70.976-367.456,80.152-548.063c4.934-97.128,9.848-205.938,59.244-302.251
	c68.098-132.778,312.674-177.885,312.674-177.885c1.74-4.488-247.168-125.157-390.502-135.488
	c-63.722-4.593-145.741-5.045-210.988,41.165c-100.213,70.975-37.47,203.229-8.734,269.477
	c54.704,126.116,116.501,246.6,151.51,386.076c29.214,116.389,41.457,244.83,17.77,377.923
	c-13.988,78.596-42.31,152.907-76.369,228.162C-674.618,846.801-677.067,852.251-679.419,857.732L-679.419,857.732z"/>
<g>
	<path style="fill-rule:evenodd;clip-rule:evenodd;fill:#F2B622;" d="M-1199.515-229.924
		c-35.853-4.477-76.367-12.408-104.018-37.487c-31.828-28.866-29.416-72.178-16.058-109.202
		c50.72-140.573,193.937-236.214,326.731-292.743c244.242-103.97,527.279-85.711,755.104,50.905
		c76.006,45.578,147.104,103.986,197.603,177.719C3.839-376.5,32.222-297.012,15.91-219.515
		C3.51-160.603-33.464-113.2-79.124-75.163c-28.251,23.535-62.352,40.751-93.616,60.19c-18.467,11.483-53.531,30.427-54.581,35.689
		c-0.304,1.524,9.013,6.145,13.632,8.314c7.91,3.714,15.958,7.197,23.62,11.39c45.42,24.857,90.385,49.723,138.846,68.159
		c49.035,18.654,101.915,30.762,154.032,33.808c55.413,3.238,114.071-3.194,159.181-38.182
		c63.07-48.919,73.763-135.07,64.897-209.78c-17.549-147.872-103.625-280.028-206.001-384.235
		C-24.767-638.071-216.961-738.392-420.8-777.481c-183.608-35.21-375.149-18.648-548.275,53.577
		c-139.535,58.211-273.364,150.413-349.549,283.804c-24.497,42.891-53.52,109.944-22.582,155.9
		C-1311.376-239.89-1248.848-235.503-1199.515-229.924L-1199.515-229.924z"/>
</g>
</svg>
